<?xml version="1.0" encoding="UTF-8" standalone="no"?>
<!-- Created with Inkscape (http://www.inkscape.org/) -->

<svg
   width="800mm"
   height="400mm"
   viewBox="0 0 800 400"
   version="1.1"
   id="svg5"
   xml:space="preserve"
   inkscape:version="1.2.1 (9c6d41e410, 2022-07-14)"
   sodipodi:docname="repository-banner.svg"
   xmlns:inkscape="http://www.inkscape.org/namespaces/inkscape"
   xmlns:sodipodi="http://sodipodi.sourceforge.net/DTD/sodipodi-0.dtd"
   xmlns:xlink="http://www.w3.org/1999/xlink"
   xmlns="http://www.w3.org/2000/svg"
   xmlns:svg="http://www.w3.org/2000/svg"
   xmlns:rdf="http://www.w3.org/1999/02/22-rdf-syntax-ns#"
   xmlns:cc="http://creativecommons.org/ns#"
   xmlns:dc="http://purl.org/dc/elements/1.1/"><sodipodi:namedview
     id="namedview7"
     pagecolor="#ffffff"
     bordercolor="#000000"
     borderopacity="0.25"
     inkscape:showpageshadow="2"
     inkscape:pageopacity="0.0"
     inkscape:pagecheckerboard="0"
     inkscape:deskcolor="#d1d1d1"
     inkscape:document-units="mm"
     showgrid="false"
     inkscape:zoom="0.31337352"
     inkscape:cx="1442.3682"
     inkscape:cy="644.59818"
     inkscape:window-width="1920"
     inkscape:window-height="1137"
     inkscape:window-x="-8"
     inkscape:window-y="537"
     inkscape:window-maximized="1"
     inkscape:current-layer="layer1" /><defs
     id="defs2"><linearGradient
       inkscape:collect="always"
       id="linearGradient1031"><stop
         style="stop-color:#f65a5a;stop-opacity:1;"
         offset="0"
         id="stop1027" /><stop
         style="stop-color:#ffffff;stop-opacity:1;"
         offset="1"
         id="stop1029" /></linearGradient><linearGradient
       inkscape:collect="always"
       xlink:href="#linearGradient1031"
       id="linearGradient1033"
       x1="399.35703"
       y1="-2.1107731"
       x2="400.20135"
       y2="400.62347"
       gradientUnits="userSpaceOnUse" /></defs><g
     inkscape:label="Calque 1"
     inkscape:groupmode="layer"
     id="layer1"><rect
       style="fill:url(#linearGradient1033);fill-opacity:1;stroke-width:0.215"
       id="rect950"
       width="807.1571"
       height="406.11145"
       x="-3.3772264"
       y="-0.84430671" /><text
       xml:space="preserve"
       style="font-style:normal;font-variant:normal;font-weight:normal;font-stretch:normal;font-size:112.418px;font-family:HandelGothic;-inkscape-font-specification:'HandelGothic, Normal';font-variant-ligatures:normal;font-variant-caps:normal;font-variant-numeric:normal;font-variant-east-asian:normal;display:none;fill:#10aaea;fill-opacity:1;stroke-width:0.342563"
       x="288.31314"
       y="-222.278"
       id="text307-0"
       inkscape:label="text_raw"><tspan
         sodipodi:role="line"
         style="font-style:normal;font-variant:normal;font-weight:normal;font-stretch:normal;font-size:70.5556px;font-family:HandelGothic;-inkscape-font-specification:'HandelGothic, Normal';font-variant-ligatures:normal;font-variant-caps:normal;font-variant-numeric:normal;font-variant-east-asian:normal;fill:#10aaea;fill-opacity:1;stroke-width:0.342563"
         x="0"
         y="0"
         id="tspan650"><tspan
   style="font-style:normal;font-variant:normal;font-weight:normal;font-stretch:normal;font-size:52.9167px;font-family:HandelGothic;-inkscape-font-specification:'HandelGothic, Normal';font-variant-ligatures:normal;font-variant-caps:normal;font-variant-numeric:normal;font-variant-east-asian:normal"
   id="tspan642">R</tspan>a<tspan
   style="font-style:normal;font-variant:normal;font-weight:normal;font-stretch:normal;font-size:52.9167px;font-family:HandelGothic;-inkscape-font-specification:'HandelGothic, Normal';font-variant-ligatures:normal;font-variant-caps:normal;font-variant-numeric:normal;font-variant-east-asian:normal"
   id="tspan644">BB</tspan>it</tspan><tspan
         sodipodi:role="line"
         style="font-style:normal;font-variant:normal;font-weight:normal;font-stretch:normal;font-size:70.5556px;font-family:HandelGothic;-inkscape-font-specification:'HandelGothic, Normal';font-variant-ligatures:normal;font-variant-caps:normal;font-variant-numeric:normal;font-variant-east-asian:normal;fill:#10aaea;fill-opacity:1;stroke-width:0.342563"
         x="0"
         y="0"
         id="tspan504-6"><tspan
   style="font-style:normal;font-variant:normal;font-weight:normal;font-stretch:normal;font-size:52.9167px;font-family:HandelGothic;-inkscape-font-specification:'HandelGothic, Normal';font-variant-ligatures:normal;font-variant-caps:normal;font-variant-numeric:normal;font-variant-east-asian:normal"
   id="tspan646">H</tspan>o<tspan
   style="font-style:normal;font-variant:normal;font-weight:normal;font-stretch:normal;font-size:52.9167px;font-family:HandelGothic;-inkscape-font-specification:'HandelGothic, Normal';font-variant-ligatures:normal;font-variant-caps:normal;font-variant-numeric:normal;font-variant-east-asian:normal"
   id="tspan648">M</tspan>e</tspan></text><g
       id="g1012"
       transform="matrix(11.586358,0,0,11.586358,47.167661,60.112175)"><path
         d="m 10.49411,19.07214 c -1.46,2.07 -4.31,2.59 -6.37,1.15 -2.05,-1.44 -2.53,-4.31 -1.09,-6.4 0.87,-1.25 2.21,-1.92 3.58,-1.98 l 0.05,1.43 c -0.91,0.07 -1.79,0.54 -2.36,1.36 -1,1.44 -0.69,3.38 0.68,4.35 1.38,0.96 3.31,0.59 4.31,-0.84 0.31,-0.45 0.49,-0.94 0.56,-1.44 v -1.01 l 5.58,-0.04 0.07,-0.11 c 0.53,-0.92 1.68,-1.24 2.58,-0.72 0.9,0.52 1.21,1.68 0.68,2.6 -0.53,0.91 -1.69,1.23 -2.59,0.71 -0.41,-0.23 -0.7,-0.6 -0.83,-1.02 l -4.07,0.02 c -0.11,0.67 -0.37,1.32 -0.78,1.94"
         id="path2"
         sodipodi:nodetypes="ccccccccccccsccccc"
         style="fill:#000000;fill-opacity:1" /><path
         d="m 8.2841103,9.2121401 c -1,-2.35 0.06,-5.04 2.3699997,-6.02 2.32,-0.98 5,0.13 6,2.48 0.59,1.37 0.469999,2.87 -0.2,4.07 l -1.240001,-0.72 c 0.42,-0.81 0.49,-1.8 0.09,-2.73 -0.68,-1.6 -2.49,-2.37 -4.039999,-1.72 -1.5600007,0.66 -2.2599997,2.5 -1.5799997,4.1 0.28,0.66 0.7499997,1.17 1.3199997,1.5099999 l 0.39,0.210001 -3.0699997,4.99 c 0.03,0.05 0.07,0.11 0.1,0.19 0.49,0.909999 0.15,2.059999 -0.77,2.549999 -0.91,0.49 -2.06,0.13 -2.5600005,-0.809999 -0.49,-0.93 -0.15,-2.08 0.7699995,-2.57 0.390001,-0.21 0.820001,-0.26 1.230001,-0.17 l 2.309999,-3.77 c -0.469999,-0.43 -0.869999,-0.9700009 -1.119999,-1.5900009 z"
         id="path2-8"
         sodipodi:nodetypes="cccccccccccccccccc"
         style="fill:#cc0000;fill-opacity:1" /><path
         d="m 17.774109,11.932142 c 2.53,0.31 4.33,2.58 4.02,5.07 -0.31,2.5 -2.61,4.269999 -5.14,3.96 -1.49,-0.18 -2.72,-1.03 -3.43,-2.21 l 1.24,-0.72 c 0.49,0.769999 1.32,1.32 2.32,1.449999 1.75,0.21 3.3,-0.979999 3.51,-2.649999 0.21,-1.67 -1.03,-3.2 -2.76,-3.41 -0.539999,-0.06 -1.059999,0.01 -1.53,0.18 l -0.85,0.44 -2.58,-4.7700009 h -0.22 c -1.06,-0.04 -1.88,-0.91 -1.849999,-1.95 0.03,-1.04 0.929999,-1.85 1.979999,-1.81 1.05,0.06 1.88,0.91 1.850001,1.95 -0.02,0.44 -0.190001,0.84 -0.460001,1.15 l 1.9,3.5100009 c 0.62,-0.2 1.3,-0.27 2.000001,-0.19"
         id="path2-8-0"
         sodipodi:nodetypes="ccccccscccccsccccc"
         style="fill:#ffffff;fill-opacity:1" /></g><g
       aria-label="System State Webhook"
       id="text141"
       style="font-size:5.40912px;font-family:HandelGothic;-inkscape-font-specification:'HandelGothic, Normal';fill:#cc0000;stroke-width:1.64828"
       transform="matrix(11.586358,0,0,11.586358,70.747784,81.184815)"><path
         d="M 23.092586,8.4655342 V 7.8218489 h 1.644373 q 0.394865,0 0.55173,-0.091955 0.162274,-0.097364 0.162274,-0.3299563 0,-0.4435479 -0.622049,-0.4435479 h -0.665322 q -0.627458,0 -0.935778,-0.2650469 -0.30832,-0.270456 -0.30832,-0.7789133 0,-0.3407745 0.173092,-0.6112305 0.173092,-0.270456 0.373229,-0.3407746 0.200138,-0.070319 0.367821,-0.086546 0.167682,-0.016227 0.48682,-0.016227 h 1.78501 v 0.6436853 h -1.611918 q -0.248819,0 -0.319138,0.00541 -0.06491,0.00541 -0.238001,0.048682 -0.167683,0.037864 -0.167683,0.3407746 0,0.2325921 0.140637,0.3245472 0.146047,0.091955 0.519276,0.091955 h 0.578776 q 0.405684,0 0.632867,0.064909 0.232592,0.064909 0.448957,0.2920924 0.216365,0.221774 0.216365,0.7410495 0,0.2866834 -0.12441,0.5355029 -0.12441,0.2434104 -0.297502,0.3515928 -0.167683,0.1027733 -0.378638,0.135228 -0.205547,0.032455 -0.600413,0.032455 z"
         id="path247" /><path
         d="m 28.512523,7.9029857 v -2.071693 h 0.724822 V 8.411443 q 0,0.5192755 -0.270456,0.7518677 -0.265047,0.2380013 -0.86005,0.2380013 h -1.29278 V 8.8387635 h 1.29278 q 0.227183,0 0.313729,-0.0595 0.08655,-0.054091 0.08655,-0.2163648 l 0.0054,-0.097364 h -0.643686 q -0.313728,0 -0.497639,-0.0595 -0.178501,-0.0595 -0.319138,-0.2109557 -0.140637,-0.1514554 -0.189319,-0.3299563 -0.04868,-0.178501 -0.04868,-0.5625485 V 5.8312927 h 0.724822 v 1.4009621 q 0,0.4165023 0.07032,0.5463212 0.07573,0.1244097 0.30832,0.1244097 z"
         id="path249" /><path
         d="m 32.244812,5.8312927 v 0.5625485 h -1.28737 q -0.243411,0 -0.324548,0.048682 -0.07573,0.043273 -0.07573,0.1839101 0,0.1514553 0.09195,0.2055465 0.09736,0.054091 0.378638,0.054091 h 0.427321 q 0.432729,0 0.670731,0.1947284 0.238001,0.1947283 0.238001,0.5571393 0,0.2488196 -0.119001,0.4651844 -0.119,0.2109556 -0.286683,0.2866833 -0.167683,0.075728 -0.611231,0.075728 H 29.848572 V 7.9029857 h 1.287371 l 0.340774,-0.010818 q 0.178501,-0.027046 0.178501,-0.2163648 0,-0.1514554 -0.09196,-0.2001375 -0.08655,-0.054091 -0.346184,-0.054091 h -0.443548 q -0.259637,0 -0.405684,-0.032455 Q 30.227205,7.3566644 30.097386,7.2593005 29.972977,7.1565273 29.89184,6.9780263 29.8107,6.7995253 29.8107,6.5993879 q 0,-0.4110931 0.194728,-0.5625485 0.200138,-0.1514554 0.324548,-0.178501 0.129819,-0.027046 0.36782,-0.027046 z"
         id="path251" /><path
         d="M 33.11568,5.8312927 V 4.8576511 h 0.724822 v 0.9736416 h 0.670731 v 0.5625485 h -0.670731 v 0.9574143 q 0,0.3407745 0.07032,0.4489569 0.07573,0.1027733 0.313729,0.1027733 h 0.286683 v 0.5625485 h -0.524685 q -0.481411,0 -0.67614,-0.2217739 Q 33.11568,8.0219864 33.11568,7.4756652 V 6.3938412 H 32.655905 V 5.8312927 Z"
         id="path253" /><path
         d="m 37.156293,6.8644347 v 0.5625485 h -1.525372 q 0,0.2596377 0.151456,0.3678201 0.151455,0.1081824 0.486821,0.1081824 h 0.887095 V 8.4655342 H 36.19347 q -0.313729,0 -0.513866,-0.054091 -0.194729,-0.054091 -0.524685,-0.3029107 -0.324547,-0.2542287 -0.324547,-0.9844599 0,-0.3570019 0.135228,-0.6490944 0.135228,-0.2920925 0.394865,-0.4651843 0.265047,-0.178501 0.778914,-0.178501 h 1.016914 V 6.3938412 H 36.19347 q -0.297502,0 -0.416502,0.1027733 -0.119001,0.097364 -0.146047,0.3678202 z"
         id="path255" /><path
         d="m 37.756702,5.8312927 h 2.661287 q 0.373229,0 0.55714,0.054091 0.18391,0.048682 0.36782,0.2542287 0.18391,0.2001374 0.18391,0.6490944 V 8.4655342 H 40.802037 V 6.9022985 q 0,-0.2975016 -0.09195,-0.4002749 -0.08655,-0.1081824 -0.340775,-0.1081824 H 39.98526 v 2.071693 h -0.724823 v -2.071693 h -0.778913 v 2.071693 h -0.724822 z"
         id="path257" /><path
         d="M 43.555282,8.4655342 V 7.8218489 h 1.644373 q 0.394866,0 0.55173,-0.091955 0.162274,-0.097364 0.162274,-0.3299563 0,-0.4435479 -0.622049,-0.4435479 h -0.665322 q -0.627458,0 -0.935778,-0.2650469 -0.30832,-0.270456 -0.30832,-0.7789133 0,-0.3407745 0.173092,-0.6112305 0.173092,-0.270456 0.37323,-0.3407746 0.200137,-0.070319 0.36782,-0.086546 0.167682,-0.016227 0.486821,-0.016227 h 1.785009 v 0.6436853 h -1.611918 q -0.248819,0 -0.319138,0.00541 -0.06491,0.00541 -0.238001,0.048682 -0.167683,0.037864 -0.167683,0.3407746 0,0.2325921 0.140637,0.3245472 0.146047,0.091955 0.519276,0.091955 h 0.578776 q 0.405684,0 0.632867,0.064909 0.232592,0.064909 0.448957,0.2920924 0.216365,0.221774 0.216365,0.7410495 0,0.2866834 -0.12441,0.5355029 -0.12441,0.2434104 -0.297502,0.3515928 -0.167682,0.1027733 -0.378638,0.135228 -0.205547,0.032455 -0.600413,0.032455 z"
         id="path259" /><path
         d="M 47.503938,5.8312927 V 4.8576511 h 0.724822 v 0.9736416 h 0.670731 V 6.3938412 H 48.22876 v 0.9574143 q 0,0.3407745 0.07032,0.4489569 0.07573,0.1027733 0.313729,0.1027733 h 0.286683 v 0.5625485 h -0.524685 q -0.481411,0 -0.67614,-0.2217739 Q 47.503938,8.0219864 47.503938,7.4756652 V 6.3938412 H 47.044163 V 5.8312927 Z"
         id="path261" /><path
         d="m 51.214595,6.8644347 v -0.043273 q 0,-0.2434104 -0.119001,-0.3353654 -0.119,-0.091955 -0.432729,-0.091955 H 49.440404 V 5.8312927 h 1.222461 q 0.49223,0 0.686958,0.054091 0.194728,0.054091 0.335365,0.221774 0.146047,0.1676827 0.200138,0.362411 0.05409,0.1893192 0.05409,0.5138664 V 8.465534 h -1.525372 q -0.443548,0 -0.589594,-0.021636 -0.140637,-0.021637 -0.357002,-0.1785009 -0.216365,-0.1568645 -0.216365,-0.584185 0,-0.2758651 0.129819,-0.4814117 0.129819,-0.2055466 0.335366,-0.270456 0.205546,-0.064909 0.61123,-0.064909 z m 0,0.5625485 h -0.838414 -0.119 q -0.270456,0 -0.270456,0.2434104 0,0.1244097 0.08655,0.1785009 0.09195,0.054091 0.30291,0.054091 h 0.838414 z"
         id="path263" /><path
         d="M 52.804874,5.8312927 V 4.8576511 h 0.724822 v 0.9736416 h 0.670731 v 0.5625485 h -0.670731 v 0.9574143 q 0,0.3407745 0.07032,0.4489569 0.07573,0.1027733 0.313729,0.1027733 h 0.286684 v 0.5625485 h -0.524685 q -0.481412,0 -0.67614,-0.2217739 -0.19473,-0.2217739 -0.19473,-0.7680951 V 6.3938412 H 52.345098 V 5.8312927 Z"
         id="path265" /><path
         d="m 56.845487,6.8644347 v 0.5625485 h -1.525372 q 0,0.2596377 0.151456,0.3678201 0.151455,0.1081824 0.48682,0.1081824 h 0.887096 v 0.5625485 h -0.962823 q -0.313729,0 -0.513867,-0.054091 -0.194728,-0.054091 -0.524684,-0.3029107 -0.324548,-0.2542287 -0.324548,-0.9844599 0,-0.3570019 0.135228,-0.6490944 0.135228,-0.2920925 0.394866,-0.4651843 0.265047,-0.178501 0.778913,-0.178501 h 1.016915 v 0.5625485 h -0.962823 q -0.297502,0 -0.416503,0.1027733 -0.119,0.097364 -0.146046,0.3678202 z"
         id="path267" /><path
         d="m 23.601043,11.619051 0.811368,2.715379 0.751868,-2.715379 h 0.86005 l 0.757277,2.715379 0.811368,-2.715379 h 0.789732 l -1.16837,3.607883 h -0.870869 l -0.746458,-2.607196 -0.751868,2.607196 h -0.870868 l -1.16837,-3.607883 z"
         id="path269" /><path
         d="m 30.962859,13.625835 v 0.562548 h -1.525372 q 0,0.259638 0.151456,0.36782 0.151455,0.108183 0.48682,0.108183 h 0.887096 v 0.562548 h -0.962823 q -0.313729,0 -0.513867,-0.05409 -0.194728,-0.05409 -0.524684,-0.302911 -0.324548,-0.254228 -0.324548,-0.984459 0,-0.357002 0.135228,-0.649095 0.135228,-0.292092 0.394866,-0.465184 0.265047,-0.178501 0.778914,-0.178501 h 1.016914 v 0.562548 h -0.962823 q -0.297502,0 -0.416503,0.102774 -0.119,0.09736 -0.146046,0.36782 z"
         id="path271" /><path
         d="m 32.28809,12.592693 h 0.643686 q 0.627458,0 0.973641,0.329956 0.346184,0.329956 0.346184,0.935778 0,0.816777 -0.378638,1.049369 -0.378639,0.232592 -0.578776,0.275865 -0.200138,0.04327 -0.55173,0.04327 h -1.179189 v -3.607883 h 0.724822 z m 0,0.562548 v 1.509145 h 0.535503 q 0.319138,0 0.503048,-0.200138 0.183911,-0.200137 0.183911,-0.55173 0,-0.757277 -0.686959,-0.757277 z"
         id="path273" /><path
         d="m 35.517336,11.619051 v 0.973642 h 0.741049 q 0.584185,0 0.833005,0.227183 0.248819,0.227183 0.248819,0.762686 v 1.644372 h -0.724822 v -1.498326 q 0,-0.351593 -0.102773,-0.459775 -0.09736,-0.113592 -0.411093,-0.113592 h -0.584185 v 2.071693 h -0.724822 v -3.607883 z"
         id="path275" /><path
         d="m 39.233402,12.554829 q 0.659912,0 1.027732,0.362411 0.367821,0.362411 0.367821,1.022324 0,0.61123 -0.378639,0.968232 -0.378638,0.357002 -1.038551,0.357002 -0.638276,0 -1.006096,-0.357002 -0.362411,-0.362411 -0.362411,-1.000687 0,-0.622049 0.373229,-0.98446 0.378638,-0.36782 1.016915,-0.36782 z m -0.01082,0.557139 q -0.638276,0 -0.638276,0.80055 0,0.795141 0.659913,0.795141 0.643685,0 0.643685,-0.795141 0,-0.80055 -0.665322,-0.80055 z"
         id="path277" /><path
         d="m 42.381515,12.554829 q 0.659912,0 1.027733,0.362411 0.36782,0.362411 0.36782,1.022324 0,0.61123 -0.378639,0.968232 -0.378638,0.357002 -1.038551,0.357002 -0.638276,0 -1.006096,-0.357002 -0.362411,-0.362411 -0.362411,-1.000687 0,-0.622049 0.373229,-0.98446 0.378639,-0.36782 1.016915,-0.36782 z m -0.01082,0.557139 q -0.638277,0 -0.638277,0.80055 0,0.795141 0.659913,0.795141 0.643685,0 0.643685,-0.795141 0,-0.80055 -0.665321,-0.80055 z"
         id="path279" /><path
         d="m 45.042805,11.619051 v 2.017602 l 0.968233,-1.04396 h 0.811368 l -1.027733,1.04396 h 0.200138 q 0.36782,0 0.513866,0.227183 0.151455,0.221774 0.151455,0.778913 v 0.584185 H 45.93531 v -0.616639 q 0,-0.243411 -0.08114,-0.329957 -0.08114,-0.08655 -0.319138,-0.08655 h -0.49223 V 15.22693 H 44.31798 v -3.607883 z"
         id="path281" /></g></g><metadata
     id="metadata336"><rdf:RDF><cc:Work
         rdf:about=""><cc:license
           rdf:resource="http://creativecommons.org/licenses/by-nc-sa/4.0/" /><dc:date>2024-12-15</dc:date><dc:creator><cc:Agent><dc:title>https://github.com/ORelio/</dc:title></cc:Agent></dc:creator><dc:rights><cc:Agent><dc:title>CC BY-NC-SA v4.0</dc:title></cc:Agent></dc:rights><dc:title>System State Webhook Logo</dc:title></cc:Work><cc:License
         rdf:about="http://creativecommons.org/licenses/by-nc-sa/4.0/"><cc:permits
           rdf:resource="http://creativecommons.org/ns#Reproduction" /><cc:permits
           rdf:resource="http://creativecommons.org/ns#Distribution" /><cc:requires
           rdf:resource="http://creativecommons.org/ns#Notice" /><cc:requires
           rdf:resource="http://creativecommons.org/ns#Attribution" /><cc:prohibits
           rdf:resource="http://creativecommons.org/ns#CommercialUse" /><cc:permits
           rdf:resource="http://creativecommons.org/ns#DerivativeWorks" /><cc:requires
           rdf:resource="http://creativecommons.org/ns#ShareAlike" /></cc:License></rdf:RDF></metadata></svg>
