<?xml version="1.0" encoding="UTF-8" standalone="no"?>
<svg
   version="1.1"
   id="mdi-webhook"
   width="20"
   height="20"
   viewBox="0 0 20 20"
   sodipodi:docname="system-state-webhook-icon.svg"
   xmlns:inkscape="http://www.inkscape.org/namespaces/inkscape"
   xmlns:sodipodi="http://sodipodi.sourceforge.net/DTD/sodipodi-0.dtd"
   xmlns="http://www.w3.org/2000/svg"
   xmlns:svg="http://www.w3.org/2000/svg"
   xmlns:rdf="http://www.w3.org/1999/02/22-rdf-syntax-ns#"
   xmlns:cc="http://creativecommons.org/ns#"
   xmlns:dc="http://purl.org/dc/elements/1.1/">
  <title
     id="title134">System State Webhook Icon</title>
  <defs
     id="defs7" />
  <sodipodi:namedview
     id="namedview5"
     pagecolor="#ffffff"
     bordercolor="#000000"
     borderopacity="0.25"
     inkscape:showpageshadow="2"
     inkscape:pageopacity="0.0"
     inkscape:pagecheckerboard="0"
     inkscape:deskcolor="#d1d1d1"
     showgrid="false"
     inkscape:zoom="16.68772"
     inkscape:cx="0.11984861"
     inkscape:cy="11.026072"
     inkscape:window-width="1920"
     inkscape:window-height="1137"
     inkscape:window-x="-8"
     inkscape:window-y="537"
     inkscape:window-maximized="1"
     inkscape:current-layer="mdi-webhook" />
  <g
     id="g1012"
     transform="translate(-2.0351448,-1.8187283)">
    <path
       d="m 10.49411,19.07214 c -1.46,2.07 -4.31,2.59 -6.37,1.15 -2.05,-1.44 -2.53,-4.31 -1.09,-6.4 0.87,-1.25 2.21,-1.92 3.58,-1.98 l 0.05,1.43 c -0.91,0.07 -1.79,0.54 -2.36,1.36 -1,1.44 -0.69,3.38 0.68,4.35 1.38,0.96 3.31,0.59 4.31,-0.84 0.31,-0.45 0.49,-0.94 0.56,-1.44 v -1.01 l 5.58,-0.04 0.07,-0.11 c 0.53,-0.92 1.68,-1.24 2.58,-0.72 0.9,0.52 1.21,1.68 0.68,2.6 -0.53,0.91 -1.69,1.23 -2.59,0.71 -0.41,-0.23 -0.7,-0.6 -0.83,-1.02 l -4.07,0.02 c -0.11,0.67 -0.37,1.32 -0.78,1.94"
       id="path2"
       sodipodi:nodetypes="ccccccccccccsccccc"
       style="fill:#1a1a1a;fill-opacity:1" />
    <path
       d="m 8.2841103,9.2121401 c -1,-2.35 0.06,-5.04 2.3699997,-6.02 2.32,-0.98 5,0.13 6,2.48 0.59,1.37 0.469999,2.87 -0.2,4.07 l -1.240001,-0.72 c 0.42,-0.81 0.49,-1.8 0.09,-2.73 -0.68,-1.6 -2.49,-2.37 -4.039999,-1.72 -1.5600007,0.66 -2.2599997,2.5 -1.5799997,4.1 0.28,0.66 0.7499997,1.17 1.3199997,1.5099999 l 0.39,0.210001 -3.0699997,4.99 c 0.03,0.05 0.07,0.11 0.1,0.19 0.49,0.909999 0.15,2.059999 -0.77,2.549999 -0.91,0.49 -2.06,0.13 -2.5600005,-0.809999 -0.49,-0.93 -0.15,-2.08 0.7699995,-2.57 0.390001,-0.21 0.820001,-0.26 1.230001,-0.17 l 2.309999,-3.77 c -0.469999,-0.43 -0.869999,-0.9700009 -1.119999,-1.5900009 z"
       id="path2-8"
       sodipodi:nodetypes="cccccccccccccccccc"
       style="fill:#cc0000;fill-opacity:1" />
    <path
       d="m 17.774109,11.932142 c 2.53,0.31 4.33,2.58 4.02,5.07 -0.31,2.5 -2.61,4.269999 -5.14,3.96 -1.49,-0.18 -2.72,-1.03 -3.43,-2.21 l 1.24,-0.72 c 0.49,0.769999 1.32,1.32 2.32,1.449999 1.75,0.21 3.3,-0.979999 3.51,-2.649999 0.21,-1.67 -1.03,-3.2 -2.76,-3.41 -0.539999,-0.06 -1.059999,0.01 -1.53,0.18 l -0.85,0.44 -2.58,-4.7700009 h -0.22 c -1.06,-0.04 -1.88,-0.91 -1.849999,-1.95 0.03,-1.04 0.929999,-1.85 1.979999,-1.81 1.05,0.06 1.88,0.91 1.850001,1.95 -0.02,0.44 -0.190001,0.84 -0.460001,1.15 l 1.9,3.5100009 c 0.62,-0.2 1.3,-0.27 2.000001,-0.19"
       id="path2-8-0"
       sodipodi:nodetypes="ccccccscccccsccccc"
       style="fill:#e6e6e6;fill-opacity:1" />
  </g>
  <metadata
     id="metadata132">
    <rdf:RDF>
      <cc:Work
         rdf:about="">
        <cc:license
           rdf:resource="https://www.apache.org/licenses/LICENSE-2.0" />
        <dc:description>https://creazilla.com/media/icon/3211689/webhook</dc:description>
        <dc:title>System State Webhook Icon</dc:title>
        <dc:creator>
          <cc:Agent>
            <dc:title>Austin Andrews, with slight color changes by ORelio</dc:title>
          </cc:Agent>
        </dc:creator>
      </cc:Work>
    </rdf:RDF>
  </metadata>
</svg>
